<svg width="38" height="38" viewBox="0 0 38 38" fill="none" xmlns="http://www.w3.org/2000/svg">
<path d="M31.0635 19.1508C31.0635 25.8966 25.595 31.3651 18.8492 31.3651C12.1035 31.3651 6.63495 25.8966 6.63495 19.1508C6.63495 12.405 12.1035 6.93651 18.8492 6.93651C25.595 6.93651 31.0635 12.405 31.0635 19.1508Z" fill="white" fill-opacity="0.46"/>
<path d="M38 19C38 29.4934 29.4934 38 19 38C8.50659 38 0 29.4934 0 19C0 8.50659 8.50659 0 19 0C29.4934 0 38 8.50659 38 19Z" fill="white" fill-opacity="0.1"/>
<path d="M22.45 19.8534L17.4126 22.7762C16.9851 23.024 16.4365 22.724 16.4365 22.2244V16.3788C16.4365 15.88 16.9844 15.5792 17.4126 15.8278L22.45 18.7506C22.5473 18.8061 22.6281 18.8863 22.6843 18.9832C22.7406 19.08 22.7702 19.19 22.7702 19.302C22.7702 19.414 22.7406 19.5239 22.6843 19.6208C22.6281 19.7176 22.5473 19.7979 22.45 19.8534Z" fill="black"/>
</svg>
