<svg width="41" height="39" viewBox="0 0 41 39" fill="none" xmlns="http://www.w3.org/2000/svg">
<path d="M41 11.0432L38.9295 16.8316V16.8111C36.7975 16.0516 34.44 17.1805 33.661 19.3153C32.9025 21.45 34.0095 23.8105 36.162 24.57V24.5905L34.0915 30.3789L3.2185 19.3358L5.248 13.6089C7.38 14.3889 9.7375 13.26 10.496 11.1253C11.2545 8.99053 10.1475 6.65053 8.0155 5.89105L10.1065 0L41 11.0432ZM29.8275 17.9605C31.3445 13.6911 29.1305 8.99053 24.8665 7.45105C20.6025 5.93211 15.908 8.16947 14.391 12.4184C12.874 16.6879 15.088 21.4089 19.352 22.9279C21.3993 23.6533 23.6501 23.5381 25.6129 22.6074C27.5756 21.6767 29.0908 20.0061 29.8275 17.9605ZM24.5795 8.23105C26.404 8.8879 27.798 10.1605 28.618 11.7411C28.5975 11.7205 28.577 11.7205 28.536 11.7C27.8595 11.4537 27.1625 11.8847 26.937 12.5211C26.732 13.0958 26.8755 13.6911 27.0395 14.3889C27.1215 14.9432 27.224 15.6616 26.9165 16.5237C26.7115 17.1189 26.24 17.7142 25.584 18.5763L24.067 20.6495L24.231 12.2747L25.051 12.5005C25.4405 12.5826 25.584 12.0079 25.215 11.9053C25.215 11.9053 24.0465 11.5974 23.329 11.3305C22.632 11.0842 21.525 10.5916 21.525 10.5916C21.156 10.4274 20.91 10.9816 21.279 11.1458C21.279 11.1458 21.607 11.31 21.976 11.4742L21.9965 14.82L18.86 18.8432L19.024 10.4068C19.434 10.53 19.844 10.6326 19.844 10.6326C20.2335 10.7147 20.377 10.1605 19.9875 10.0374C19.9875 10.0374 18.8395 9.72947 18.122 9.46263C17.9785 9.42158 17.835 9.36 17.671 9.29842C19.5775 7.86158 22.1605 7.36895 24.5795 8.23105ZM15.17 12.7058C15.5185 11.7 16.072 10.8174 16.769 10.0989L16.851 20.3621C14.924 18.4121 14.186 15.4563 15.17 12.7058ZM23.452 22.4558L27.757 17.0574C28.5155 16.2158 28.9255 15.4768 29.1715 14.7584C29.274 14.5121 29.3355 14.2658 29.397 14.04C29.5815 15.21 29.479 16.4621 29.0485 17.6732C28.6143 18.8904 27.8691 19.9725 26.8871 20.8116C25.9052 21.6508 24.7208 22.2176 23.452 22.4558ZM22.017 15.8463L22.058 22.4558C22.058 22.4968 22.058 22.5379 22.0785 22.5789C20.529 22.5809 19.0199 22.0844 17.7735 21.1626L22.017 15.8463ZM24.559 28.3263L28.864 29.8658C29.356 31.59 30.914 32.8421 32.7795 32.8421H32.8V39H0V32.9242C1.08739 32.9242 2.13024 32.4917 2.89914 31.7218C3.66804 30.9519 4.1 29.9077 4.1 28.8189C4.1 27.7302 3.66804 26.686 2.89914 25.9161C2.13024 25.1462 1.08739 24.7137 0 24.7137L0 18.4737H2.1525L1.5785 20.1158L10.3525 23.2358C8.97128 24.7342 8.20298 26.6977 8.2 28.7368C8.2 33.2732 11.8695 36.9474 16.4 36.9474C20.9305 36.9474 24.6 33.2732 24.6 28.7368C24.6 28.5932 24.559 28.47 24.559 28.3263ZM11.1725 23.5437L14.2065 24.6316C13.9195 24.7137 13.899 25.1858 14.268 25.2063C14.268 25.2063 14.637 25.2474 15.0265 25.2679L16.1745 28.4289L14.5755 33.2732L11.89 25.2679C12.3205 25.2474 12.7305 25.2063 12.7305 25.2063C13.12 25.1653 13.079 24.57 12.6895 24.5905C12.6895 24.5905 11.48 24.6932 10.7215 24.6932C10.578 24.6932 10.414 24.6932 10.25 24.6726C10.5165 24.2621 10.824 23.8926 11.1725 23.5437ZM9.02 28.7368C9.02 27.6695 9.266 26.6432 9.676 25.74L13.1815 35.3874C11.9365 34.779 10.8866 33.8334 10.1511 32.6579C9.41554 31.4824 9.02369 30.124 9.02 28.7368ZM17.6095 25.8426L21.1355 27.1153C21.279 27.4642 21.3815 27.8747 21.3815 28.3674C21.3815 29.0037 21.1355 29.7221 20.8075 30.7484L20.09 33.2116L17.6095 25.8426ZM23.78 28.7368C23.78 31.4668 22.304 33.8479 20.1105 35.1205L22.3655 28.5932C22.4885 28.2442 22.5705 27.9568 22.6525 27.6489L23.7185 28.0389C23.7595 28.2647 23.78 28.4905 23.78 28.7368ZM14.309 35.8184L16.523 29.3732L18.7985 35.5926C18.819 35.6337 18.819 35.6747 18.8395 35.6953C18.081 35.9621 17.261 36.1263 16.4 36.1263C15.6825 36.1263 14.9855 36.0032 14.309 35.8184Z" fill="white" fill-opacity="0.4"/>
</svg>
