<svg width="257" height="194" viewBox="0 0 257 194" fill="none" xmlns="http://www.w3.org/2000/svg">
<g filter="url(#filter0_d_6_10)">
<g filter="url(#filter1_i_6_10)">
<path d="M55.1438 48.3176L82.8581 48.005" stroke="#0054D1" stroke-width="7" stroke-linecap="round"/>
</g>
<g filter="url(#filter2_i_6_10)">
<path d="M55.425 73.2419L83.1393 72.9293" stroke="#0054D1" stroke-width="7" stroke-linecap="round"/>
</g>
<g filter="url(#filter3_i_6_10)">
<path d="M55.2836 73.4559L83.2918 48" stroke="#0054D1" stroke-width="7" stroke-linecap="round"/>
</g>
<path d="M102.033 53.1305H105.57V63.9934C105.57 65.2131 105.279 66.2804 104.696 67.1951C104.119 68.1099 103.31 68.8232 102.27 69.3351C101.23 69.8415 100.019 70.0946 98.6357 70.0946C97.2472 70.0946 96.033 69.8415 94.9929 69.3351C93.9529 68.8232 93.1443 68.1099 92.5672 67.1951C91.99 66.2804 91.7014 65.2131 91.7014 63.9934V53.1305H95.238V63.6912C95.238 64.3283 95.3768 64.8946 95.6545 65.3901C95.9377 65.8856 96.3352 66.2749 96.847 66.5581C97.3588 66.8412 97.9551 66.9828 98.6357 66.9828C99.3218 66.9828 99.918 66.8412 100.424 66.5581C100.936 66.2749 101.331 65.8856 101.609 65.3901C101.892 64.8946 102.033 64.3283 102.033 63.6912V53.1305ZM107.98 53.1305H112.341L116.948 64.3692H117.144L121.75 53.1305H126.112V69.8578H122.681V58.9704H122.543L118.214 69.7761H115.878L111.549 58.9295H111.41V69.8578H107.98V53.1305ZM131.409 69.8578H127.619L133.394 53.1305H137.951L143.717 69.8578H139.928L135.738 56.953H135.607L131.409 69.8578ZM131.172 63.2829H140.124V66.0435H131.172V63.2829Z" fill="#0054D1"/>
</g>
<defs>
<filter id="filter0_d_6_10" x="-61.3562" y="-64.5" width="318.074" height="258.456" filterUnits="userSpaceOnUse" color-interpolation-filters="sRGB">
<feFlood flood-opacity="0" result="BackgroundImageFix"/>
<feColorMatrix in="SourceAlpha" type="matrix" values="0 0 0 0 0 0 0 0 0 0 0 0 0 0 0 0 0 0 127 0" result="hardAlpha"/>
<feOffset dy="4"/>
<feGaussianBlur stdDeviation="56.5"/>
<feComposite in2="hardAlpha" operator="out"/>
<feColorMatrix type="matrix" values="0 0 0 0 0 0 0 0 0 0.329412 0 0 0 0 0.819608 0 0 0 0.25 0"/>
<feBlend mode="normal" in2="BackgroundImageFix" result="effect1_dropShadow_6_10"/>
<feBlend mode="normal" in="SourceGraphic" in2="effect1_dropShadow_6_10" result="shape"/>
</filter>
<filter id="filter1_i_6_10" x="51.6438" y="44.5049" width="34.7144" height="11.3126" filterUnits="userSpaceOnUse" color-interpolation-filters="sRGB">
<feFlood flood-opacity="0" result="BackgroundImageFix"/>
<feBlend mode="normal" in="SourceGraphic" in2="BackgroundImageFix" result="shape"/>
<feColorMatrix in="SourceAlpha" type="matrix" values="0 0 0 0 0 0 0 0 0 0 0 0 0 0 0 0 0 0 127 0" result="hardAlpha"/>
<feOffset dy="4"/>
<feGaussianBlur stdDeviation="12"/>
<feComposite in2="hardAlpha" operator="arithmetic" k2="-1" k3="1"/>
<feColorMatrix type="matrix" values="0 0 0 0 0 0 0 0 0 0 0 0 0 0 0 0 0 0 0.66 0"/>
<feBlend mode="normal" in2="shape" result="effect1_innerShadow_6_10"/>
</filter>
<filter id="filter2_i_6_10" x="51.925" y="69.4293" width="34.7144" height="11.3126" filterUnits="userSpaceOnUse" color-interpolation-filters="sRGB">
<feFlood flood-opacity="0" result="BackgroundImageFix"/>
<feBlend mode="normal" in="SourceGraphic" in2="BackgroundImageFix" result="shape"/>
<feColorMatrix in="SourceAlpha" type="matrix" values="0 0 0 0 0 0 0 0 0 0 0 0 0 0 0 0 0 0 127 0" result="hardAlpha"/>
<feOffset dy="4"/>
<feGaussianBlur stdDeviation="18.5"/>
<feComposite in2="hardAlpha" operator="arithmetic" k2="-1" k3="1"/>
<feColorMatrix type="matrix" values="0 0 0 0 0 0 0 0 0 0 0 0 0 0 0 0 0 0 0.66 0"/>
<feBlend mode="normal" in2="shape" result="effect1_innerShadow_6_10"/>
</filter>
<filter id="filter3_i_6_10" x="51.7836" y="44.5" width="35.0082" height="36.4559" filterUnits="userSpaceOnUse" color-interpolation-filters="sRGB">
<feFlood flood-opacity="0" result="BackgroundImageFix"/>
<feBlend mode="normal" in="SourceGraphic" in2="BackgroundImageFix" result="shape"/>
<feColorMatrix in="SourceAlpha" type="matrix" values="0 0 0 0 0 0 0 0 0 0 0 0 0 0 0 0 0 0 127 0" result="hardAlpha"/>
<feOffset dy="4"/>
<feGaussianBlur stdDeviation="24.5"/>
<feComposite in2="hardAlpha" operator="arithmetic" k2="-1" k3="1"/>
<feColorMatrix type="matrix" values="0 0 0 0 0 0 0 0 0 0 0 0 0 0 0 0 0 0 0.25 0"/>
<feBlend mode="normal" in2="shape" result="effect1_innerShadow_6_10"/>
</filter>
</defs>
</svg>
